<svg xmlns="http://www.w3.org/2000/svg" viewBox="0 0 32 32" fill="none">
  <defs>
    <linearGradient id="brand" x1="0%" y1="0%" x2="100%" y2="100%">
      <stop offset="0%" stop-color="#06b6d4"/>
      <stop offset="100%" stop-color="#14b8a6"/>
    </linearGradient>
  </defs>
  <rect width="32" height="32" rx="8" fill="url(#brand)"/>
  <path d="M10 11.5C10 9.567 11.567 8 13.5 8H16c1.933 0 3.5 1.567 3.5 3.5v0c0 .828-.672 1.5-1.5 1.5h0c-.828 0-1.5-.672-1.5-1.5v0c0-.276-.224-.5-.5-.5h-2.5c-.276 0-.5.224-.5.5v9c0 .276.224.5.5.5H16c.276 0 .5-.224.5-.5v0c0-.828.672-1.5 1.5-1.5h0c.828 0 1.5.672 1.5 1.5v0c0 1.933-1.567 3.5-3.5 3.5h-2.5C11.567 24 10 22.433 10 20.5v-9z" fill="white"/>
  <path d="M19.5 16.5l3 3m0-3l-3 3" stroke="white" stroke-width="2" stroke-linecap="round"/>
</svg>
